<?xml version="1.0" encoding="UTF-8"?>
<svg width="512px" height="192px" viewBox="0 0 512 192" version="1.1" xmlns="http://www.w3.org/2000/svg" xmlns:xlink="http://www.w3.org/1999/xlink">
    <title>CMDEV-ISO-WHITE@vector</title>
    <desc>Isometric CMDEV Logo</desc>
    <defs></defs>
    <g id="Page-1" stroke="none" stroke-width="1" fill="none" fill-rule="evenodd">
        <g id="CMDEV-ISO-WHITE" fill="#F1F1F1">
            <g id="cmdev-iso---white-copy-svg" transform="translate(17.000000, 11.000000)">
                <path d="M45.4753678,148.964285 L68.2130517,138.982143 L29.7338943,122.089285 L5.24715786,132.839285 L41.9772625,148.964285 L45.4753678,148.964285 Z M3.49810524,130.535715 L27.9848417,119.785715 L27.9848417,73.7142854 L3.49810524,62.9642857 L3.49810524,130.535715 Z M41.9772625,152.035715 L0,133.607143 L0,58.3571428 L27.9848417,46.0714285 L73.4602094,66.0357143 L73.4602094,69.1071427 L45.4753678,81.3928573 L31.4829469,75.25 L31.4829469,119.785715 L73.4602094,138.214285 L73.4602094,139.75 L45.4753678,152.035715 L41.9772625,152.035715 Z M136.115999,148.964285 L160.602736,138.214285 L160.602736,92.1428573 L136.115999,81.3928573 L136.115999,148.964285 Z M94.1387374,130.535715 L118.625474,119.785715 L118.625474,73.7142854 L94.1387374,62.9642857 L94.1387374,130.535715 Z M174.595158,172 L174.595158,98.2857146 L164.100841,93.6785719 L164.100841,139.75 L132.617895,153.571428 L132.617895,79.8571427 L122.123579,75.25 L122.123579,121.321428 L90.6406326,135.142857 L90.6406326,58.3571428 L118.625474,46.0714285 L206.078104,84.4642854 L206.078104,158.178572 L174.595158,172 Z M265.235789,148.964285 L265.235789,127.464285 L252.992421,122.089285 L228.505685,132.839285 L265.235789,148.964285 Z M265.235789,124.392857 L265.235789,79.8571427 L254.741474,75.25 L254.741474,119.785715 L265.235789,124.392857 Z M226.756632,130.535715 L251.243369,119.785715 L251.243369,73.7142854 L226.756632,62.9642857 L226.756632,130.535715 Z M265.235789,76.7857146 L265.235789,55.2857143 L251.243369,49.1428572 L226.756632,59.8928572 L265.235789,76.7857146 Z M265.235789,152.035715 L223.258527,133.607143 L223.258527,58.3571428 L251.243369,46.0714285 L265.235789,52.2142857 L265.235789,13.8214285 L296.718736,0 L296.718736,139.75 L268.733894,152.035715 L265.235789,152.035715 Z M359.374527,148.964285 L382.112211,138.982143 L343.633054,122.089285 L319.146317,132.839285 L355.876422,148.964285 L359.374527,148.964285 Z M317.397264,130.535715 L341.884001,119.785715 L341.884001,109.035715 L317.397264,98.2857146 L317.397264,130.535715 Z M355.876422,112.107143 L355.876422,90.6071427 L343.633054,85.2321427 L319.146317,95.9821427 L355.876422,112.107143 Z M355.876422,87.5357146 L355.876422,79.8571427 L345.382105,75.25 L345.382105,82.9285719 L355.876422,87.5357146 Z M317.397264,93.6785719 L341.884001,82.9285719 L341.884001,73.7142854 L317.397264,62.9642857 L317.397264,93.6785719 Z M355.876422,152.035715 L313.899159,133.607143 L313.899159,58.3571428 L341.884001,46.0714285 L387.359368,66.0357143 L387.359368,102.892857 L359.374527,115.178572 L355.876422,115.178572 L345.382105,110.571428 L345.382105,119.785715 L387.359368,138.214285 L387.359368,139.75 L359.374527,152.035715 L355.876422,152.035715 Z" id="CMDEV" fill-rule="nonzero"></path>
                <path d="M404.531744,137.053235 L405.847449,61.4411978 L438.205473,49.4700227 L436.867675,123.772366 L454.82617,137.329122 L457.008527,74.8345708 L482.957958,64.0455079 L479.994107,139.761415 L432.454839,164.397176 L404.531744,137.053235 Z M408.70495,137.396541 L432.502231,160.317832 L454.486993,149.060297 L454.755919,141.359261 L435.22081,126.14702 L408.70495,137.396541 Z M434.14323,123.677226 L435.335556,54.2341992 L409.088402,63.7409076 L407.863493,134.183204 L434.14323,123.677226 Z" id="Combined-Shape" transform="translate(443.744851, 106.933599) rotate(-2.000000) translate(-443.744851, -106.933599) "></path>
            </g>
        </g>
    </g>
</svg>