<?xml version="1.0" encoding="UTF-8"?>
<svg width="400px" height="200px" viewBox="0 0 400 200" version="1.1" xmlns="http://www.w3.org/2000/svg" xmlns:xlink="http://www.w3.org/1999/xlink">
    <!-- Generator: Sketch 48.2 (47327) - http://www.bohemiancoding.com/sketch -->
    <title>CMDEV-ISO-WHITE@vector</title>
    <desc>Created with Sketch.</desc>
    <defs></defs>
    <g id="Page-1" stroke="none" stroke-width="1" fill="none" fill-rule="evenodd">
        <g id="CMDEV-ISO-WHITE" fill="#FFFFFF">
            <g id="cmdev-iso---white-copy-svg" transform="translate(4.967049, 7.726346)">
                <path d="M327.051764,148.315062 L325.984253,67.2882786 L351.722638,53.2574601 L352.735491,131.810824 L367.645383,150.480226 L367.588584,79.718702 L389.550913,67.2882786 L389.550913,150.480226 L350.322668,176.555079 L327.051764,148.315062 Z M330.424345,148.526657 L350.246064,172.184486 L367.645383,155.555247 L367.588584,155.302928 L351.722638,134.747125 L330.424345,148.526657 Z M350.537358,131.810824 L349.544022,58.467041 L328.660645,69.6299714 L329.655844,145.116767 L350.537358,131.810824 Z" id="Combined-Shape"></path>
                <path d="M36.6680233,159.632253 L55.0020349,148.935246 L23.975246,130.83262 L4.23092579,142.352473 L33.8474061,159.632253 L36.6680233,159.632253 Z M2.8206172,139.883934 L22.5649374,128.36408 L22.5649374,78.9932796 L2.8206172,67.4734266 L2.8206172,139.883934 Z M33.8474061,162.92364 L0,143.17532 L0,62.5363466 L22.5649374,49.3707999 L59.2329606,70.7648133 L59.2329606,74.0561998 L36.6680233,87.2217468 L25.3855546,80.6389733 L25.3855546,128.36408 L59.2329606,148.1124 L59.2329606,149.758093 L36.6680233,162.92364 L33.8474061,162.92364 Z M109.754025,159.632253 L129.498345,148.1124 L129.498345,98.7416001 L109.754025,87.2217468 L109.754025,159.632253 Z M75.906619,139.883934 L95.6509395,128.36408 L95.6509395,78.9932796 L75.906619,67.4734266 L75.906619,139.883934 Z M140.780814,184.317653 L140.780814,105.324374 L132.318962,100.387294 L132.318962,149.758093 L106.933408,164.569333 L106.933408,85.5760531 L98.4715563,80.6389733 L98.4715563,130.009773 L73.0860022,144.821013 L73.0860022,62.5363466 L95.6509395,49.3707999 L166.166368,90.513133 L166.166368,169.506414 L140.780814,184.317653 Z M213.866816,159.632253 L213.866816,136.592546 L203.994655,130.83262 L184.250336,142.352473 L213.866816,159.632253 Z M213.866816,133.30116 L213.866816,85.5760531 L205.404964,80.6389733 L205.404964,128.36408 L213.866816,133.30116 Z M182.840027,139.883934 L202.584347,128.36408 L202.584347,78.9932796 L182.840027,67.4734266 L182.840027,139.883934 Z M213.866816,82.2846669 L213.866816,59.24496 L202.584347,52.6621867 L182.840027,64.18204 L213.866816,82.2846669 Z M213.866816,162.92364 L180.01941,143.17532 L180.01941,62.5363466 L202.584347,49.3707999 L213.866816,55.9535733 L213.866816,14.81124 L239.25237,0 L239.25237,149.758093 L216.687432,162.92364 L213.866816,162.92364 Z M289.773435,159.632253 L308.107446,148.935246 L277.080658,130.83262 L257.336337,142.352473 L286.952818,159.632253 L289.773435,159.632253 Z M255.926028,139.883934 L275.670349,128.36408 L275.670349,116.844227 L255.926028,105.324374 L255.926028,139.883934 Z M286.952818,120.135613 L286.952818,97.0959065 L277.080658,91.3359798 L257.336337,102.855833 L286.952818,120.135613 Z M286.952818,93.8045203 L286.952818,85.5760531 L278.490965,80.6389733 L278.490965,88.8674404 L286.952818,93.8045203 Z M255.926028,100.387294 L275.670349,88.8674404 L275.670349,78.9932796 L255.926028,67.4734266 L255.926028,100.387294 Z M286.952818,162.92364 L253.105411,143.17532 L253.105411,62.5363466 L275.670349,49.3707999 L312.338372,70.7648133 L312.338372,110.261453 L289.773435,123.427 L286.952818,123.427 L278.490965,118.489919 L278.490965,128.36408 L312.338372,148.1124 L312.338372,149.758093 L289.773435,162.92364 L286.952818,162.92364 Z" id="CMDEV" fill-rule="nonzero"></path>
            </g>
        </g>
    </g>
</svg>