<?xml version="1.0" encoding="UTF-8"?>
<svg width="512px" height="512px" viewBox="0 0 512 512" version="1.1" xmlns="http://www.w3.org/2000/svg" xmlns:xlink="http://www.w3.org/1999/xlink">
    <!-- Generator: Sketch 48.2 (47327) - http://www.bohemiancoding.com/sketch -->
    <title>ADMIN UI ICON - RECIPE (White)@0.5x</title>
    <desc>Created with Sketch.</desc>
    <defs></defs>
    <g id="Page-1" stroke="none" stroke-width="1" fill="none" fill-rule="evenodd">
        <g id="ADMIN-UI-ICON---RECIPE-(White)">
            <path d="M418.240954,364.115602 L349.236267,281.066944 C349.052378,280.815002 348.97115,280.481344 349.009153,280.134517 C349.091256,279.385205 349.694903,278.777768 350.357437,278.777768 L499.136263,278.777768 C499.442923,278.777768 499.752378,278.91059 500.001172,279.148947 C500.539212,279.663912 500.654523,280.522628 500.257425,281.066944 L431.22321,364.147003 L429.084378,464.221364 C458.706066,464.529447 482.319643,468.148068 482.608971,472.566725 C482.911533,477.187481 457.113985,480.933343 424.988535,480.933343 C392.863085,480.933343 367.063517,477.187481 367.363586,472.566725 C367.648891,468.173328 390.994049,464.570846 420.376453,464.226972 L418.240954,364.115602 Z" id="Martini" fill="#FFFFFF"></path>
            <path d="M234.012404,468.765083 L197.030472,190.432532 C196.709606,188.017645 198.959295,185.857103 202.055291,185.606827 C202.248304,185.591225 202.442222,185.583408 202.636269,185.583408 L323.84103,185.583408 C326.953608,185.583408 329.476852,187.551546 329.476852,189.979368 C329.476852,190.130725 329.46683,190.281982 329.446827,190.432532 L292.472621,468.706929 C305.265168,470.4595 313.611279,473.339818 313.611279,476.595987 C313.611279,481.937195 213.293638,481.937195 213.293638,476.595987 C213.293638,473.37558 221.457423,470.522815 234.012404,468.765083 Z" id="Tall" fill="#FFFFFF"></path>
            <path d="M119.421875,41.2227797 L119.421875,116.065766 C146.657194,123.131846 161.008849,144.141904 162.476852,179.095944 L162.476852,462.494957 C162.476852,467.270082 147.021219,480.00375 96.2384261,480.00375 C45.4556328,480.00375 30,469.39236 30,462.494957 L30,179.095944 C31.4680029,144.141904 45.8196582,123.131846 73.054966,116.065769 L73.054977,41.2227797 L65.3271606,41.2227797 L65.3271606,20 L127.149692,20 L127.149692,41.2227797 L119.421875,41.2227797 Z M38.8317901,206.760461 L38.8317901,388.215228 C58.1513311,391.752358 77.470872,393.520923 96.790413,393.520923 C116.109954,393.520923 135.429495,391.752358 154.749036,388.215228 L154.749036,206.760461 C135.429495,209.590165 116.109954,211.005017 96.790413,211.005017 C77.470872,211.005017 58.1513311,209.590165 38.8317901,206.760461 Z" id="Bottle" fill="#FFFFFF"></path>
            <g id="brbckr" transform="translate(329.487400, 115.846959) rotate(21.000000) translate(-329.487400, -115.846959) translate(150.987400, 68.846959)">
                <path d="M26.5952849,7.35128205 L26.5952849,39.6487179 C30.1956863,33.3016777 35.1886209,30.1282051 41.5742385,30.1282051 C49.3864302,30.1282051 55.3303999,33.1209102 59.4063261,39.1064103 C63.4822522,45.0919103 65.5201847,52.7243126 65.5201847,62.0038462 C65.5201847,71.2833797 63.3294072,78.9358673 58.9477867,84.9615385 C54.5661661,90.9872096 48.4353859,94 40.555262,94 C34.509305,94 29.8560258,91.1478918 26.5952849,85.4435897 L26.5952849,92.1923077 L11.3106384,92.1923077 L11.3106384,5.78461538 C7.57437281,6.90940733 4.72126732,8.87776372 2.75123637,11.6897436 L0,7.95384615 C1.97003095,5.54357769 4.46649825,3.61539185 7.48947678,2.16923077 C10.5124553,0.723069692 13.501423,0 16.4564694,0 C19.4115158,0 21.840052,0.702984423 23.7421509,2.10897436 C25.6442497,3.51496429 26.5952849,5.26238272 26.5952849,7.35128205 Z M46.8729159,80.3820513 C48.7750148,75.8828835 49.7260499,69.7769616 49.7260499,62.0641026 C49.7260499,54.3512435 48.7750148,48.2453216 46.8729159,43.7461538 C44.9708171,39.2469861 42.0667633,36.9974359 38.1606674,36.9974359 C34.2545716,36.9974359 31.2656039,39.2670713 29.1936748,43.8064103 C27.1217457,48.3457492 26.0857967,54.4315858 26.0857967,62.0641026 C26.0857967,69.6966194 27.1217457,75.7824559 29.1936748,80.3217949 C31.2656039,84.8611338 34.2545716,87.1307692 38.1606674,87.1307692 C42.0667633,87.1307692 44.9708171,84.8812191 46.8729159,80.3820513 Z M145.29724,7.35128205 L145.29724,39.6487179 C148.897641,33.3016777 153.890576,30.1282051 160.276193,30.1282051 C168.088385,30.1282051 174.032355,33.1209102 178.108281,39.1064103 C182.184207,45.0919103 184.222139,52.7243126 184.222139,62.0038462 C184.222139,71.2833797 182.031362,78.9358673 177.649741,84.9615385 C173.268121,90.9872096 167.137341,94 159.257217,94 C153.21126,94 148.557981,91.1478918 145.29724,85.4435897 L145.29724,92.1923077 L130.012593,92.1923077 L130.012593,5.78461538 C126.276328,6.90940733 123.423222,8.87776372 121.453191,11.6897436 L118.701955,7.95384615 C120.671986,5.54357769 123.168453,3.61539185 126.191432,2.16923077 C129.21441,0.723069692 132.203378,0 135.158424,0 C138.113471,0 140.542007,0.702984423 142.444106,2.10897436 C144.346205,3.51496429 145.29724,5.26238272 145.29724,7.35128205 Z M165.574871,80.3820513 C167.47697,75.8828835 168.428005,69.7769616 168.428005,62.0641026 C168.428005,54.3512435 167.47697,48.2453216 165.574871,43.7461538 C163.672772,39.2469861 160.768718,36.9974359 156.862622,36.9974359 C152.956526,36.9974359 149.967559,39.2670713 147.89563,43.8064103 C145.823701,48.3457492 144.787751,54.4315858 144.787751,62.0641026 C144.787751,69.6966194 145.823701,75.7824559 147.89563,80.3217949 C149.967559,84.8611338 152.956526,87.1307692 156.862622,87.1307692 C160.768718,87.1307692 163.672772,84.8812191 165.574871,80.3820513 Z M219.269224,94 C211.185304,94 204.646938,90.9269538 199.653928,84.7807692 C194.660919,78.6345847 192.164451,71.0624382 192.164451,62.0641026 C192.164451,53.065767 194.660919,45.4936205 199.653928,39.3474359 C204.646938,33.2012513 211.151339,30.1282051 219.167327,30.1282051 C223.650845,30.1282051 228.0324,31.6546856 232.312123,34.7076923 C236.591845,37.760699 238.731674,41.8982645 238.731674,47.1205128 C238.731674,49.7718081 237.933484,52.0414436 236.33708,53.9294872 C234.740675,55.8175308 232.821622,56.7615385 230.579863,56.7615385 C228.338103,56.7615385 226.41905,55.8175308 224.822646,53.9294872 C223.226242,52.0414436 222.428051,49.8923197 222.428051,47.4820513 C222.428051,45.0717828 222.9715,43.0230854 224.058414,41.3358974 C225.145327,39.6487095 226.57188,38.4837639 228.338115,37.8410256 C226.436016,36.8769183 224.262221,36.3948718 221.816665,36.3948718 C217.265215,36.3948718 213.817712,38.7850188 211.474055,43.5653846 C209.130397,48.3457504 207.958586,54.4115017 207.958586,61.7628205 C207.958586,69.1141393 209.130397,75.0794643 211.474055,79.6589744 C213.817712,84.2384844 217.265215,86.5282051 221.816665,86.5282051 C227.930555,86.5282051 233.127282,83.5154147 237.407005,77.4897436 L240.260139,79.6589744 C238.01838,83.9974576 235.08036,87.4722092 231.445993,90.0833333 C227.811625,92.6944575 223.752743,94 219.269224,94 Z M266.648533,7.35128205 L266.648533,38.5641026 C270.316867,32.9401428 275.955147,30.1282051 283.563542,30.1282051 C287.911197,30.1282051 291.443613,31.4136624 294.160897,33.9846154 C296.878181,36.5555684 298.236803,39.7892968 298.236803,43.6858974 C298.236803,47.5824981 297.251802,51.0572497 295.281771,54.1102564 C293.31174,57.1632631 290.628462,59.6538365 287.231857,61.5820513 L293.345716,80.3820513 C294.025037,82.4709506 294.704348,83.8970047 295.383669,84.6602564 C296.06299,85.4235081 297.014025,85.8051282 298.236803,85.8051282 C300.478562,85.8051282 302.788219,84.6401826 305.165842,82.3102564 L307,85.2025641 C301.565432,91.0675507 295.944135,94 290.13594,94 C284.327745,94 280.472656,91.1077212 278.570558,85.3230769 L270.928234,62.1846154 C274.6645,61.1401657 277.772347,58.9709566 280.251869,55.6769231 C282.73139,52.3828895 283.971133,49.209417 283.971133,46.1564103 C283.971133,43.1034035 283.325787,40.8940239 282.035077,39.5282051 C280.744367,38.1623863 279.114021,37.4794872 277.143991,37.4794872 C273.88325,37.4794872 271.318851,39.0260529 269.450718,42.1192308 C267.582586,45.2124086 266.648533,49.4504004 266.648533,54.8333333 L266.648533,92.1923077 L251.363887,92.1923077 L251.363887,5.78461538 C247.627621,6.90940733 244.774516,8.87776372 242.804485,11.6897436 L240.053248,7.95384615 C242.023279,5.54357769 244.519747,3.61539185 247.542725,2.16923077 C250.565704,0.723069692 253.554671,0 256.509718,0 C259.464764,0 261.8933,0.702984423 263.795399,2.10897436 C265.697498,3.51496429 266.648533,5.26238272 266.648533,7.35128205 Z" fill="#FFFFFF"></path>
                <path d="M107.869458,30.7362713 C109.899205,30.7362713 110.914064,32.9966467 110.914064,37.5174653 L110.914064,78.7994712 C110.914064,80.9409116 111.353835,82.6262792 112.233392,83.8556246 C113.112949,85.0849701 114.466094,85.6996336 116.292866,85.6996336 C118.119638,85.6996336 120.217012,84.549618 122.58505,82.2495524 L124.411813,85.104792 C118.999155,90.8946123 113.586577,93.7894791 108.173919,93.7894791 C99.8519568,93.7894791 95.6910381,87.9600899 95.6910381,76.3011365 L95.6910381,42.8710396 C92.5111013,44.3779791 88.6546401,45.4090276 84.1215387,45.9642158 C83.5802728,53.2609757 81.7873567,60.5576262 78.7427363,67.8543861 L74.581776,66.4267663 C76.4762064,60.7955711 77.4910647,54.0937563 77.6263811,46.3211208 C75.0553684,46.3211208 72.9749091,45.4486952 71.3849407,43.7038178 C69.7949723,41.9589404 69,39.7977043 69,37.2200445 C69,34.6423848 69.7611437,32.4613208 71.2834538,30.6767871 C72.805764,28.8922535 74.6663374,28 76.8652298,28 C79.0641223,28 80.9077814,28.9120813 82.3962625,30.7362713 C83.8847435,32.5604613 84.6289729,34.9001481 84.6289729,37.755402 L86.5572228,37.755402 C91.9022229,37.755402 97.5854289,36.0105508 103.607011,32.520796 C105.5691,31.3311069 106.989901,30.7362713 107.869458,30.7362713 Z M340.457646,30.9467922 C342.487392,30.9467922 343.502251,33.2071676 343.502251,37.7279862 L343.502251,79.0099921 C343.502251,81.1514325 343.942023,82.8368001 344.82158,84.0661456 C345.701137,85.295491 347.054281,85.9101545 348.881053,85.9101545 C350.707825,85.9101545 352.805199,84.7601389 355.173237,82.4600733 L357,85.3153129 C351.587342,91.1051332 346.174764,94 340.762106,94 C332.440144,94 328.279225,88.1706108 328.279225,76.5116575 L328.279225,43.0815605 C325.099288,44.5885 321.242827,45.6195485 316.709726,46.1747367 C316.16846,53.4714966 314.375544,60.7681471 311.330923,68.064907 L307.169963,66.6372872 C309.064394,61.006092 310.079252,54.3042772 310.214568,46.5316417 C307.643556,46.5316417 305.563096,45.6592161 303.973128,43.9143387 C302.383159,42.1694613 301.588187,40.0082252 301.588187,37.4305655 C301.588187,34.8529057 302.349331,32.6718417 303.871641,30.887308 C305.393951,29.1027744 307.254525,28.2105209 309.453417,28.2105209 C311.652309,28.2105209 313.495969,29.1226022 314.98445,30.9467922 C316.472931,32.7709822 317.21716,35.110669 317.21716,37.9659229 L319.14541,37.9659229 C324.49041,37.9659229 330.173616,36.2210717 336.195198,32.731317 C338.157287,31.5416278 339.578089,30.9467922 340.457646,30.9467922 Z" id="Combined-Shape" fill="#4A90E2"></path>
            </g>
            <g id="LABEL" transform="translate(50.000000, 224.000000)">
                <path d="M0.668272293,121.13031 C16.2733149,122.845293 31.6769408,123.702784 47,123.702784 C62.3230592,123.702784 77.7266851,122.845293 93.3317277,121.13031 L89.3436755,149.427526 C75.0679836,151.142509 60.9937084,152 47,152 C33.0062916,152 18.9320164,151.142509 4.65632446,149.427526 L0.668272293,121.13031 Z" id="Rectangle" fill="#4A90E2"></path>
                <ellipse id="Oval" fill="#F4F4F4" cx="47" cy="56" rx="44" ry="56"></ellipse>
                <path d="M24.7908488,62 L68.2053108,62 C70.9667345,62 73.2053108,64.2385763 73.2053108,67 C73.2053108,67.3993046 73.1574781,67.7971716 73.0628351,68.185098 L68.2166394,88.0488675 C67.6703248,90.2881227 65.6640497,91.8637695 63.3591151,91.8637695 L30.9673366,91.8637695 C28.7777907,91.8637695 26.8429435,90.4391705 26.1928243,88.3483678 L20.0163364,68.4845982 C19.1964155,65.8477079 20.6693602,63.0454086 23.3062505,62.2254877 C23.7869441,62.0760197 24.2874533,62 24.7908488,62 Z" id="Rectangle-2" fill="#070707"></path>
                <ellipse id="Oval-2" fill="#A8A8A8" cx="47" cy="45" rx="16" ry="24"></ellipse>
            </g>
        </g>
    </g>
</svg>