<?xml version="1.0" encoding="UTF-8"?>
<svg width="512px" height="512px" viewBox="0 0 512 512" version="1.1" xmlns="http://www.w3.org/2000/svg" xmlns:xlink="http://www.w3.org/1999/xlink">
    <!-- Generator: Sketch 48.2 (47327) - http://www.bohemiancoding.com/sketch -->
    <title>ADMIN UI ICON - RECIPE (Black)@0.5x</title>
    <desc>Created with Sketch.</desc>
    <defs></defs>
    <g id="Page-1" stroke="none" stroke-width="1" fill="none" fill-rule="evenodd">
        <g id="ADMIN-UI-ICON---RECIPE-(Black)">
            <path d="M418.240954,361.973191 L349.236267,278.823289 C349.052378,278.57104 348.97115,278.236975 349.009153,277.889726 C349.091256,277.139501 349.694903,276.531323 350.357437,276.531323 L499.136263,276.531323 C499.442923,276.531323 499.752378,276.664307 500.001172,276.902954 C500.539212,277.418547 500.654523,278.27831 500.257425,278.823289 L431.22321,362.00463 L429.084378,462.200991 C458.706066,462.509449 482.319643,466.132481 482.608971,470.556526 C482.911533,475.182914 457.113985,478.933343 424.988535,478.933343 C392.863085,478.933343 367.063517,475.182914 367.363586,470.556526 C367.648891,466.157773 390.994049,462.550899 420.376453,462.206605 L418.240954,361.973191 Z" id="Martini" stroke="#FFFFFF" fill="#000000"></path>
            <path d="M234.012404,466.750248 L197.030472,188.078387 C196.709606,185.660555 198.959295,183.49738 202.055291,183.246799 C202.248304,183.231177 202.442222,183.22335 202.636269,183.22335 L323.84103,183.22335 C326.953608,183.22335 329.476852,185.193888 329.476852,187.62467 C329.476852,187.776211 329.46683,187.927652 329.446827,188.078387 L292.472621,466.692024 C305.265168,468.446731 313.611279,471.33056 313.611279,474.590699 C313.611279,479.938419 213.293638,479.938419 213.293638,474.590699 C213.293638,471.366367 221.457423,468.510124 234.012404,466.750248 Z" id="Tall" fill="#000000"></path>
            <path d="M119.421875,41.2227797 L119.421875,116.065766 C146.657194,123.131846 161.008849,144.141904 162.476852,179.095944 L162.476852,462.494957 C162.476852,467.270082 147.021219,480.00375 96.2384261,480.00375 C45.4556328,480.00375 30,469.39236 30,462.494957 L30,179.095944 C31.4680029,144.141904 45.8196582,123.131846 73.054966,116.065769 L73.054977,41.2227797 L65.3271606,41.2227797 L65.3271606,20 L127.149692,20 L127.149692,41.2227797 L119.421875,41.2227797 Z M38.8317901,206.760461 L38.8317901,388.215228 C58.1513311,391.752358 77.470872,393.520923 96.790413,393.520923 C116.109954,393.520923 135.429495,391.752358 154.749036,388.215228 L154.749036,206.760461 C135.429495,209.590165 116.109954,211.005017 96.790413,211.005017 C77.470872,211.005017 58.1513311,209.590165 38.8317901,206.760461 Z" id="Bottle" fill="#000000"></path>
            <g id="LABEL" transform="translate(50.000000, 224.000000)">
                <path d="M0.668272293,121.13031 C16.2733149,122.845293 31.6769408,123.702784 47,123.702784 C62.3230592,123.702784 77.7266851,122.845293 93.3317277,121.13031 L89.3436755,149.427526 C75.0679836,151.142509 60.9937084,152 47,152 C33.0062916,152 18.9320164,151.142509 4.65632446,149.427526 L0.668272293,121.13031 Z" id="Rectangle" fill="#FF0000"></path>
                <ellipse id="Oval" fill="#000000" cx="47" cy="56" rx="44" ry="56"></ellipse>
                <path d="M24.7908488,62 L68.2053108,62 C70.9667345,62 73.2053108,64.2385763 73.2053108,67 C73.2053108,67.3993046 73.1574781,67.7971716 73.0628351,68.185098 L68.2166394,88.0488675 C67.6703248,90.2881227 65.6640497,91.8637695 63.3591151,91.8637695 L30.9673366,91.8637695 C28.7777907,91.8637695 26.8429435,90.4391705 26.1928243,88.3483678 L20.0163364,68.4845982 C19.1964155,65.8477079 20.6693602,63.0454086 23.3062505,62.2254877 C23.7869441,62.0760197 24.2874533,62 24.7908488,62 Z" id="Rectangle-2" fill="#FFFFFF"></path>
                <ellipse id="Oval-2" fill="#A8A8A8" cx="47" cy="45" rx="16" ry="24"></ellipse>
            </g>
            <g id="brbckr" transform="translate(329.000000, 113.000000) rotate(21.000000) translate(-329.000000, -113.000000) translate(147.000000, 64.000000)">
                <path d="M27.1150625,7.66410256 L27.1150625,41.3358974 C30.78583,34.7187703 35.8763464,31.4102564 42.3867643,31.4102564 C50.3516373,31.4102564 56.4117758,34.5303107 60.5673617,40.7705128 C64.7229476,47.010715 66.8007094,54.9679003 66.8007094,64.6423077 C66.8007094,74.316715 64.5671155,82.2948404 60.0998607,88.5769231 C55.6326058,94.8590058 49.3820058,98 41.347873,98 C35.1837539,98 30.4395312,95.0265255 27.1150625,89.0794872 L27.1150625,96.1153846 L11.5316932,96.1153846 L11.5316932,6.03076923 C7.72240615,7.20342467 4.81353965,9.2555409 2.80500646,12.1871795 L0,8.29230769 C2.00853319,5.77947462 4.55379138,3.76923831 7.63585092,2.26153846 C10.7179105,0.753838615 13.7652944,0 16.7780942,0 C19.790894,0 22.2668934,0.732898654 24.2061669,2.19871795 C26.1454403,3.66453724 27.1150625,5.4863139 27.1150625,7.66410256 Z M47.788999,83.8025641 C49.7282724,79.1119424 50.6978946,72.7461941 50.6978946,64.7051282 C50.6978946,56.6640624 49.7282724,50.2983141 47.788999,45.6076923 C45.8497256,40.9170706 42.888915,38.5717949 38.9064785,38.5717949 C34.924042,38.5717949 31.8766581,40.9380105 29.7642352,45.6705128 C27.6518124,50.4030151 26.5956168,56.7478235 26.5956168,64.7051282 C26.5956168,72.6624329 27.6518124,79.0072413 29.7642352,83.7397436 C31.8766581,88.4722459 34.924042,90.8384615 38.9064785,90.8384615 C42.888915,90.8384615 45.8497256,88.4931858 47.788999,83.8025641 Z M148.136925,7.66410256 L148.136925,41.3358974 C151.807693,34.7187703 156.898209,31.4102564 163.408627,31.4102564 C171.3735,31.4102564 177.433639,34.5303107 181.589224,40.7705128 C185.74481,47.010715 187.822572,54.9679003 187.822572,64.6423077 C187.822572,74.316715 185.588978,82.2948404 181.121723,88.5769231 C176.654469,94.8590058 170.403868,98 162.369736,98 C156.205617,98 151.461394,95.0265255 148.136925,89.0794872 L148.136925,96.1153846 L132.553556,96.1153846 L132.553556,6.03076923 C128.744269,7.20342467 125.835402,9.2555409 123.826869,12.1871795 L121.021863,8.29230769 C123.030396,5.77947462 125.575654,3.76923831 128.657714,2.26153846 C131.739773,0.753838615 134.787157,0 137.799957,0 C140.812757,0 143.288756,0.732898654 145.22803,2.19871795 C147.167303,3.66453724 148.136925,5.4863139 148.136925,7.66410256 Z M168.810862,83.8025641 C170.750135,79.1119424 171.719757,72.7461941 171.719757,64.7051282 C171.719757,56.6640624 170.750135,50.2983141 168.810862,45.6076923 C166.871588,40.9170706 163.910778,38.5717949 159.928341,38.5717949 C155.945905,38.5717949 152.898521,40.9380105 150.786098,45.6705128 C148.673675,50.4030151 147.61748,56.7478235 147.61748,64.7051282 C147.61748,72.6624329 148.673675,79.0072413 150.786098,83.7397436 C152.898521,88.4722459 155.945905,90.8384615 159.928341,90.8384615 C163.910778,90.8384615 166.871588,88.4931858 168.810862,83.8025641 Z M223.554616,98 C215.312704,98 208.646552,94.7961859 203.555959,88.3884615 C198.465366,81.9807372 195.920108,74.0863717 195.920108,64.7051282 C195.920108,55.3238847 198.465366,47.4295192 203.555959,41.0217949 C208.646552,34.6140705 215.278075,31.4102564 223.450727,31.4102564 C228.021872,31.4102564 232.48906,33.0016935 236.852425,36.1846154 C241.21579,39.3675373 243.39744,43.6811694 243.39744,49.125641 C243.39744,51.8897574 242.58365,54.2559731 240.956045,56.224359 C239.328441,58.1927449 237.371882,59.1769231 235.08631,59.1769231 C232.800737,59.1769231 230.844178,58.1927449 229.216574,56.224359 C227.588969,54.2559731 226.775179,52.0153972 226.775179,49.5025641 C226.775179,46.989731 227.329249,44.8538549 228.437405,43.0948718 C229.545562,41.3358886 230.999995,40.1213709 232.800749,39.4512821 C230.861475,38.4461488 228.645196,37.9435897 226.151845,37.9435897 C221.51144,37.9435897 217.99656,40.4354452 215.607098,45.4192308 C213.217636,50.4030164 212.022923,56.7268848 212.022923,64.3910256 C212.022923,72.0551665 213.217636,78.2743351 215.607098,83.0487179 C217.99656,87.8231008 221.51144,90.2102564 226.151845,90.2102564 C232.385223,90.2102564 237.683516,87.0692622 242.046881,80.7871795 L244.955777,83.0487179 C242.670205,87.5718175 239.674765,91.1944308 235.969367,93.9166667 C232.26397,96.6389025 228.125761,98 223.554616,98 Z M271.859905,7.66410256 L271.859905,40.2051282 C275.599933,34.341851 281.348407,31.4102564 289.105501,31.4102564 C293.538125,31.4102564 297.139579,32.7504139 299.90997,35.4307692 C302.68036,38.1111245 304.065535,41.4824583 304.065535,45.5448718 C304.065535,49.6072853 303.061283,53.2298986 301.05275,56.4128205 C299.044217,59.5957424 296.308497,62.1922976 292.845509,64.2025641 L299.078857,83.8025641 C299.771454,85.9803528 300.464042,87.46709 301.156639,88.2628205 C301.849237,89.058551 302.818859,89.4564103 304.065535,89.4564103 C306.351107,89.4564103 308.705904,88.2418925 311.129996,85.8128205 L313,88.8282051 C307.459219,94.9427656 301.728059,98 295.806349,98 C289.884639,98 285.954207,94.9846455 284.014933,88.9538462 L276.223249,64.8307692 C280.032536,63.7418749 283.201122,61.4803591 285.729104,58.0461538 C288.257085,54.6119486 289.521057,51.3034347 289.521057,48.1205128 C289.521057,44.9375909 288.863099,42.6341952 287.547164,41.2102564 C286.231228,39.7863177 284.569019,39.074359 282.560485,39.074359 C279.236017,39.074359 276.6215,40.686736 274.716856,43.9115385 C272.812213,47.1363409 271.859905,51.5546728 271.859905,57.1666667 L271.859905,96.1153846 L256.276536,96.1153846 L256.276536,6.03076923 C252.467249,7.20342467 249.558382,9.2555409 247.549849,12.1871795 L244.744843,8.29230769 C246.753376,5.77947462 249.298634,3.76923831 252.380694,2.26153846 C255.462753,0.753838615 258.510137,0 261.522937,0 C264.535737,0 267.011736,0.732898654 268.95101,2.19871795 C270.890283,3.66453724 271.859905,5.4863139 271.859905,7.66410256 Z" fill="#000000"></path>
                <path d="M109.679239,31.8606472 C111.751272,31.8606472 112.787273,34.223767 112.787273,38.9500774 L112.787273,82.1085381 C112.787273,84.3473167 113.236207,86.1092919 114.134088,87.3945167 C115.031969,88.6797414 116.413304,89.3223442 118.278134,89.3223442 C120.142964,89.3223442 122.284033,88.1200552 124.701405,85.7154411 L126.566226,88.7004643 C121.040804,94.7534583 115.515464,97.7799099 109.990042,97.7799099 C101.494706,97.7799099 97.2471014,91.6855485 97.2471014,79.4966427 L97.2471014,44.5469959 C94.0009159,46.1224327 90.0641117,47.200347 85.4365707,47.7807711 C84.8840285,55.4092019 83.0537599,63.0375183 79.94571,70.6659491 L75.698063,69.1734375 C77.6319607,63.2862789 78.6679618,56.2798361 78.8060974,48.153899 C76.1815219,48.153899 74.0577197,47.2418177 72.4346269,45.4176277 C70.8115342,43.5934377 70,41.3339636 70,38.6391375 C70,35.9443114 70.7770008,33.6641081 72.3310258,31.7984593 C73.8850507,29.9328104 75.7843861,29 78.0290888,29 C80.2737915,29 82.1558602,29.9535395 83.6753513,31.8606472 C85.1948423,33.767755 85.9545765,36.2137912 85.9545765,39.1988293 L87.9229982,39.1988293 C93.3793525,39.1988293 99.1809587,37.3746667 105.327991,33.7262868 C107.330956,32.4825209 108.781358,31.8606472 109.679239,31.8606472 Z M347.113013,32.0807373 C349.185047,32.0807373 350.221048,34.4438571 350.221048,39.1701674 L350.221048,82.3286281 C350.221048,84.5674067 350.669981,86.329382 351.567862,87.6146067 C352.465744,88.8998315 353.847078,89.5424342 355.711908,89.5424342 C357.576738,89.5424342 359.717807,88.3401452 362.135179,85.9355312 L364,88.9205544 C358.474578,94.9735484 352.949239,98 347.423817,98 C338.92848,98 334.680876,91.9056385 334.680876,79.7167328 L334.680876,44.767086 C331.43469,46.3425228 327.497886,47.420437 322.870345,48.0008611 C322.317803,55.6292919 320.487534,63.2576083 317.379484,70.8860391 L313.131837,69.3935275 C315.065735,63.506369 316.101736,56.4999262 316.239872,48.373989 C313.615296,48.373989 311.491494,47.4619077 309.868401,45.6377177 C308.245309,43.8135278 307.433774,41.5540536 307.433774,38.8592275 C307.433774,36.1644014 308.210775,33.8841982 309.7648,32.0185493 C311.318825,30.1529005 313.21816,29.2200901 315.462863,29.2200901 C317.707566,29.2200901 319.589635,30.1736296 321.109126,32.0807373 C322.628617,33.987845 323.388351,36.4338812 323.388351,39.4189194 L325.356773,39.4189194 C330.813127,39.4189194 336.614733,37.5947568 342.761765,33.9463768 C344.764731,32.7026109 346.215132,32.0807373 347.113013,32.0807373 Z" id="Combined-Shape" fill="#FF001F"></path>
            </g>
        </g>
    </g>
</svg>